<?xml version="1.0" encoding="utf-8"?>
<!-- Generator: Adobe Illustrator 27.5.0, SVG Export Plug-In . SVG Version: 6.00 Build 0)  -->
<svg version="1.1" id="Layer_1" xmlns="http://www.w3.org/2000/svg" xmlns:xlink="http://www.w3.org/1999/xlink" x="0px" y="0px"
	 viewBox="0 0 100 100" style="enable-background:new 0 0 100 100;" xml:space="preserve">
<g>
	<rect style="fill:#FFFFFF;" width="100" height="100"/>
	
		<radialGradient id="SVGID_1_" cx="16936.3613" cy="-363.5094" r="10.2312" gradientTransform="matrix(-0.0049 -0.3467 2.946 -0.0358 1216.4512 5939.1338)" gradientUnits="userSpaceOnUse">
		<stop  offset="0" style="stop-color:#000000"/>
		<stop  offset="0.0074" style="stop-color:#090909"/>
		<stop  offset="0.0477" style="stop-color:#373737"/>
		<stop  offset="0.0931" style="stop-color:#626262"/>
		<stop  offset="0.1419" style="stop-color:#888888"/>
		<stop  offset="0.195" style="stop-color:#A8A8A8"/>
		<stop  offset="0.2537" style="stop-color:#C4C4C4"/>
		<stop  offset="0.32" style="stop-color:#DADADA"/>
		<stop  offset="0.3974" style="stop-color:#EBEBEB"/>
		<stop  offset="0.4931" style="stop-color:#F6F6F6"/>
		<stop  offset="0.6274" style="stop-color:#FDFDFD"/>
		<stop  offset="1" style="stop-color:#FFFFFF"/>
	</radialGradient>
	<path style="opacity:0.5;fill:url(#SVGID_1_);" d="M62.521,76.759c16.637-0.19,30.117,1.228,30.141,3.191
		c0.029,1.944-13.426,3.704-30.04,3.913c-16.612,0.196-30.116-1.221-30.155-3.189C32.452,78.724,45.9,76.992,62.521,76.759z"/>
	<g>
		<g>
			<path style="fill:#2795B9;" d="M15.066,75.438v-7.757h1.662c0.357,0,0.678,0.037,0.961,0.112c0.282,0.075,0.53,0.188,0.742,0.342
				c0.212,0.153,0.375,0.355,0.489,0.606c0.114,0.251,0.171,0.544,0.171,0.878c0,0.485-0.103,0.854-0.308,1.106
				c-0.205,0.253-0.521,0.438-0.948,0.556c0.462,0.153,0.809,0.378,1.039,0.674s0.347,0.718,0.347,1.266
				c0,0.685-0.198,1.225-0.596,1.621c-0.396,0.396-0.936,0.596-1.621,0.596H15.066z M16.174,71.005h0.555
				c0.923,0,1.385-0.462,1.385-1.386c0-0.152-0.019-0.287-0.057-0.404c-0.037-0.117-0.082-0.214-0.134-0.292
				c-0.052-0.078-0.131-0.144-0.235-0.197c-0.105-0.054-0.202-0.095-0.288-0.123c-0.087-0.029-0.21-0.05-0.37-0.063
				c-0.16-0.014-0.294-0.021-0.4-0.024c-0.107-0.003-0.259-0.004-0.455-0.004V71.005z M16.174,74.606h0.555
				c0.479,0,0.829-0.11,1.052-0.331c0.222-0.222,0.333-0.572,0.333-1.055c0-0.481-0.111-0.833-0.333-1.054
				c-0.223-0.221-0.573-0.331-1.052-0.331h-0.555V74.606z"/>
			<path style="fill:#2795B9;" d="M20.026,75.438v-7.757h1.386c0.824,0,1.447,0.16,1.865,0.48c0.418,0.32,0.627,0.853,0.627,1.597
				c0,0.462-0.082,0.849-0.246,1.16c-0.164,0.312-0.405,0.525-0.723,0.641l1.246,3.879h-1.1l-1.116-3.602h-0.831v3.602H20.026z
				 M21.135,71.005h0.277c0.461,0,0.808-0.098,1.038-0.292c0.231-0.195,0.347-0.514,0.347-0.955c0-0.441-0.115-0.76-0.347-0.954
				c-0.23-0.195-0.577-0.292-1.038-0.292h-0.277V71.005z"/>
			<path style="fill:#2795B9;" d="M24.338,75.438L26,67.681h1.108l1.662,7.757h-1.108l-0.416-1.939h-1.385l-0.415,1.939H24.338z
				 M26,72.667h1.108l-0.555-3.324L26,72.667z"/>
			<path style="fill:#2795B9;" d="M29.445,75.438v-7.757h1.108v7.757H29.445z"/>
			<path style="fill:#2795B9;" d="M31.739,75.438v-7.757h0.831l1.939,4.796v-4.796h1.108v7.757H34.83l-1.982-5.16v5.16H31.739z"/>
		</g>
	</g>
	<g>
		<path style="fill:#44AFCC;" d="M66.38,37.83l-0.757,0.914l1.688,3.665l1.107,2.403c0.019-0.004,0.037-0.008,0.057-0.012
			l-1.256-6.722c-0.066,0.006-0.135,0.01-0.204,0.004C66.774,38.063,66.556,37.971,66.38,37.83z"/>
		<path style="fill:#44AFCC;" d="M47.455,17.702c-0.127-0.055-0.25-0.103-0.372-0.146l-1.364,1.953l-0.883,1.265L47.455,17.702z"/>
		<path style="fill:#44AFCC;" d="M40.965,57.145l0.89-1.251c-0.147-0.133-0.264-0.3-0.329-0.491l-3.945,0.876l-0.617,0.138
			l1.766,0.575l1.905,0.619L40.965,57.145z"/>
		<path style="fill:#44AFCC;" d="M62.904,23.724l0.918-0.029l1.501-0.048c-0.041-0.238-0.108-0.477-0.198-0.714l-2.227,0.765
			C62.899,23.708,62.903,23.715,62.904,23.724z"/>
		<path style="fill:#44AFCC;" d="M23.68,25.86l5.589-2.524l-1.987,0.431C25.951,24.19,24.717,24.909,23.68,25.86z"/>
		<path style="fill:#44AFCC;" d="M66.227,24.536c0.183-0.376,0.58-0.622,1.021-0.586c0.05,0.004,0.098,0.016,0.146,0.027
			l0.034-0.065c-0.069-0.023-0.139-0.045-0.209-0.064l-4.044,0.13l2.311,0.423L66.227,24.536z"/>
		<path style="fill:#44AFCC;" d="M40.56,19.325l3.037-1.829c-0.633,0.191-1.229,0.491-1.756,0.885
			c-0.028,0.021-0.063,0.03-0.101,0.024c-0.621-0.107-1.258-0.151-1.889-0.132l-0.059,0.547
			C40.116,18.878,40.387,19.065,40.56,19.325z"/>
		<path style="fill:#44AFCC;" d="M18.928,40.945c0.009-0.11,0.037-0.213,0.074-0.312L16.06,39.27
			c-0.421,0.799-0.728,1.649-0.913,2.533l2.845-0.519l0.94-0.172C18.928,41.058,18.923,41.002,18.928,40.945z"/>
		<path style="fill:#44AFCC;" d="M31.462,52.066c0.048,0.234,0.104,0.466,0.167,0.691l2.766-1.185l1.198-0.514L31.462,52.066z"/>
		<path style="fill:#44AFCC;" d="M43.206,23.897c-0.015-0.001-0.028-0.006-0.042-0.007l-0.582,3.826
			c0.149,0.051,0.284,0.131,0.398,0.233l1.716-1.917l0.424-0.473c-0.207-0.231-0.324-0.543-0.297-0.876
			c0.013-0.158,0.058-0.306,0.125-0.439l-0.692-0.459l-0.316-0.208C43.77,23.792,43.499,23.921,43.206,23.897z"/>
		<path style="fill:#44AFCC;" d="M40.803,23.786l1.202,3.885c0.096-0.017,0.193-0.026,0.295-0.018c0.009,0,0.018,0.004,0.026,0.005
			l0.585-3.842c-0.309-0.147-0.512-0.472-0.482-0.832c0.012-0.141,0.06-0.269,0.131-0.381l-2.237-1.724
			c-0.105,0.086-0.227,0.155-0.357,0.2L40.803,23.786z"/>
		<g>
			<path style="fill:#44AFCC;" d="M68.759,50.956l-0.018-1.753l-0.021-2.089c-0.034,0-0.067,0.005-0.103,0.002
				c-0.062-0.005-0.121-0.019-0.18-0.033l-2.37,4.513l-1.239,2.358l2.988-1.457c-0.051-0.149-0.074-0.31-0.061-0.476
				C67.801,51.466,68.229,51.033,68.759,50.956z"/>
			<path style="fill:#44AFCC;" d="M63.864,35.417l1.629,3.074l0.702-0.848c-0.18-0.226-0.28-0.516-0.255-0.825
				c0.024-0.306,0.167-0.572,0.376-0.766l-5.234-5.945c-0.008,0.005-0.015,0.011-0.022,0.016L63.864,35.417z"/>
			<path style="fill:#44AFCC;" d="M54.4,54.727l-0.706,5.895c0.21,0.076,0.421,0.14,0.628,0.191c0.043,0.01,0.078,0.042,0.093,0.085
				c0.052,0.155,0.113,0.314,0.185,0.479l0.732-2.825l1.246-4.804l-1.136,0.016C55.351,54.284,54.921,54.678,54.4,54.727z"/>
			<path style="fill:#44AFCC;" d="M76.917,51.375c-0.069-0.236-0.151-0.467-0.244-0.689l-0.146,1.307l0.206-0.325L76.917,51.375z"/>
			<path style="fill:#44AFCC;" d="M55.574,28.682l3.466,0.208l0.257,0.015c0.068-0.352,0.286-0.644,0.586-0.809l-0.327-0.938
				l-0.881-2.531c-0.114,0.026-0.231,0.041-0.354,0.031c-0.187-0.016-0.356-0.077-0.506-0.167l-1.849,2.422l-0.752,0.985
				C55.425,28.101,55.558,28.377,55.574,28.682z"/>
			<path style="fill:#44AFCC;" d="M57.661,55.097l5.849,11.316c0.058-0.601,0.134-1.176,0.227-1.716
				c0.008-0.041,0.033-0.076,0.069-0.094c0.037-0.02,0.081-0.021,0.117,0c0.192,0.095,0.394,0.183,0.617,0.265l0.082-0.172
				l-4.551-6.275L57.661,55.097z"/>
			<path style="fill:#44AFCC;" d="M61.014,54.062l0.311,0.845l3.301,8.99l-0.226-9.553l-2.836-0.864
				C61.453,53.733,61.258,53.938,61.014,54.062z"/>
			<path style="fill:#44AFCC;" d="M53.175,53.921l-4.739,0.555l-4.631,0.542c0,0.033,0.004,0.065,0.002,0.1
				c-0.027,0.335-0.195,0.624-0.438,0.819l2.291,3.618c1.505-0.627,2.858-1.613,3.918-2.856c0.026-0.032,0.067-0.049,0.109-0.045
				c0.005,0,0.009,0,0.013,0.001c0.046,0.009,0.084,0.04,0.1,0.084c0.624,1.722,1.946,3.094,3.643,3.785l0.383-3.188l0.313-2.615
				C53.68,54.658,53.312,54.34,53.175,53.921z"/>
			<path style="fill:#44AFCC;" d="M68.022,46.891l-1.221,1.02l-5.337,4.461c0.141,0.212,0.218,0.467,0.196,0.739
				c-0.004,0.041-0.015,0.079-0.022,0.119l0.727,0.222l2.097,0.64l0.817-1.557l2.909-5.539C68.13,46.965,68.075,46.93,68.022,46.891
				z"/>
			<path style="fill:#44AFCC;" d="M37.741,49.757l1.751-1.663c-0.208-0.232-0.326-0.544-0.299-0.878
				c0.011-0.131,0.047-0.253,0.097-0.367l-6.895-5.684c-0.036,0.034-0.074,0.065-0.114,0.094l4.389,8.247
				c0.125-0.033,0.257-0.051,0.394-0.04C37.326,49.486,37.559,49.596,37.741,49.757z"/>
			<path style="fill:#44AFCC;" d="M36.757,52.423l0.065-0.626c-0.386-0.049-0.709-0.279-0.884-0.602l-4.235,1.816
				c0.31,1.008,0.768,1.956,1.361,2.822l3.088,0.387l0.2,0.025L36.757,52.423z"/>
			<path style="fill:#44AFCC;" d="M76.914,55.03l-0.597-2.07l-2.081,5.657C75.529,57.779,76.472,56.52,76.914,55.03z"/>
			<path style="fill:#44AFCC;" d="M64.901,64.562l3.268,0.272l0.817,0.068c0.605-0.217,1.174-0.522,1.692-0.912l-4.636-7.161
				l-1.374-2.123L64.901,64.562z"/>
			<path style="fill:#44AFCC;" d="M35.798,50.54c0.034-0.415,0.282-0.761,0.626-0.941l-0.804-1.511l-3.566-6.7
				c-0.171,0.074-0.358,0.113-0.557,0.097c-0.059-0.004-0.113-0.018-0.168-0.03l-5.524,11.722l3.557-0.866
				c0.62-0.342,1.203-0.755,1.735-1.225c0.036-0.032,0.088-0.041,0.133-0.023c0.046,0.017,0.077,0.059,0.083,0.106
				c0.023,0.197,0.056,0.408,0.099,0.642l1.209-0.294l3.182-0.776C35.796,50.674,35.792,50.608,35.798,50.54z"/>
			<polygon style="fill:#44AFCC;" points="76.854,40.644 75.826,41.355 71.032,44.677 75.47,42.228 77.386,41.169 			"/>
			<path style="fill:#44AFCC;" d="M68.175,44.905l-2.779-6.03l-7.776,1.75c-0.017,0.153-0.059,0.296-0.129,0.425l4.854,2.072
				l5.329,2.275C67.786,45.186,67.963,45.015,68.175,44.905z"/>
			<path style="fill:#44AFCC;" d="M42.54,56.193c-0.173-0.015-0.331-0.067-0.474-0.146l-0.519,0.731l-0.693,0.976l2.301,2.492
				c0.775-0.113,1.534-0.313,2.258-0.592l-2.266-3.58C42.964,56.164,42.758,56.211,42.54,56.193z"/>
			<path style="fill:#44AFCC;" d="M40.062,59.081l-0.613,1.042c1.107,0.239,2.257,0.297,3.391,0.166l-2.131-2.307L40.062,59.081z"/>
			<path style="fill:#44AFCC;" d="M37.793,58.364l0.937,1.575c0.149,0.044,0.3,0.085,0.452,0.122l1.309-2.224l-1.271-0.413
				l-2.462-0.802L37.793,58.364z"/>
			<path style="fill:#44AFCC;" d="M30.458,40.601l-9.189,0.493c-0.001,0.014,0.002,0.027,0.001,0.041
				c-0.031,0.378-0.24,0.696-0.537,0.888l4.164,9.488l0.678,1.542l5.506-11.685C30.771,41.218,30.543,40.937,30.458,40.601z"/>
			<path style="fill:#44AFCC;" d="M58.921,24.542l1.067,3.066L60.125,28c0.132-0.038,0.271-0.057,0.415-0.045
				c0.014,0.001,0.025,0.006,0.038,0.007l0.976-3.218c-0.337-0.143-0.57-0.464-0.594-0.838l-1.404-0.158
				C59.476,24.103,59.236,24.39,58.921,24.542z"/>
			<path style="fill:#44AFCC;" d="M40.269,48.481c-0.218-0.017-0.413-0.097-0.579-0.215l-1.773,1.685
				c0.158,0.219,0.246,0.489,0.223,0.779c-0.012,0.149-0.055,0.29-0.116,0.417l3.789,3.046c0.102-0.102,0.222-0.183,0.354-0.241
				l-1.324-4.256l-0.379-1.219C40.398,48.483,40.334,48.487,40.269,48.481z"/>
			<path style="fill:#44AFCC;" d="M43.375,28.919c-0.012,0.151-0.055,0.292-0.118,0.421l0.458,0.25l5.387,2.937l-2.484-5.924
				l-0.294-0.7c-0.135,0.04-0.277,0.059-0.425,0.046c-0.219-0.017-0.416-0.098-0.583-0.217l-1.987,2.221l-0.172,0.192
				C43.312,28.363,43.398,28.631,43.375,28.919z"/>
			<path style="fill:#44AFCC;" d="M46.564,25.803l2.855,6.806l3.049-2.466l0.952-0.771c-0.134-0.209-0.207-0.459-0.185-0.725
				c0.008-0.1,0.032-0.192,0.063-0.283l-4.03-1.899l-2.279-1.074C46.883,25.563,46.739,25.706,46.564,25.803z"/>
			<path style="fill:#44AFCC;" d="M68.21,37.311c-0.123,0.34-0.395,0.605-0.733,0.717l1.26,6.747
				c0.024,0.001,0.047-0.003,0.071-0.001c0.37,0.03,0.682,0.232,0.875,0.52l3.791-2.626l3.116-2.16L68.21,37.311z"/>
			<path style="fill:#44AFCC;" d="M63.386,68.388l-2.569,8.552L60.287,78.7l3.857-0.495C63.788,76.07,63.268,72.209,63.386,68.388z"
				/>
			<path style="fill:#44AFCC;" d="M60.003,51.953L56.62,41.659c-0.003,0-0.006,0.002-0.01,0.002l0.265,11.801l2.447-0.393
				c-0.003-0.049-0.007-0.098-0.003-0.148C59.354,52.483,59.63,52.125,60.003,51.953z"/>
			<path style="fill:#44AFCC;" d="M39.421,46.617c0.169-0.229,0.417-0.39,0.701-0.45l-0.339-10.455l-0.082-2.541
				c-0.037,0-0.073,0.005-0.11,0.002c-0.171-0.014-0.329-0.066-0.47-0.144l-6.546,6.651c0.136,0.21,0.21,0.461,0.188,0.729
				c-0.017,0.207-0.091,0.395-0.199,0.556l1.812,1.493L39.421,46.617z"/>
			<path style="fill:#44AFCC;" d="M70.078,52.313c-0.075,0.444-0.395,0.796-0.809,0.924l0.897,4.282l1.226,5.85
				c1.108-1.118,1.768-2.583,1.866-4.151c0.003-0.048,0.032-0.091,0.076-0.11l0.041-0.017c0.059-0.027,0.118-0.055,0.177-0.083
				c0.11-0.054,0.22-0.111,0.326-0.173l0.433-1.177l1.838-4.994L70.078,52.313z"/>
			<path style="fill:#44AFCC;" d="M76.961,48.098c0.93-0.703,1.433-1.863,1.296-3.03c-0.042-0.364-0.146-0.72-0.311-1.057
				c-0.018-0.037-0.018-0.08,0.002-0.117c0.303-0.588,0.423-1.246,0.347-1.905c-0.034-0.281-0.104-0.561-0.213-0.831l-0.276,0.104
				l-0.083,0.032L76.961,48.098z"/>
			<path style="fill:#44AFCC;" d="M67.931,52.731l-1.2,0.585l-2.014,0.982l1.183,1.827l4.986,7.702
				c0.098-0.08,0.192-0.162,0.284-0.247l-2.158-10.299c-0.06,0.004-0.119,0.008-0.18,0.003
				C68.446,53.254,68.121,53.037,67.931,52.731z"/>
			<path style="fill:#44AFCC;" d="M53.121,53.465c0.006-0.074,0.021-0.146,0.039-0.215l-11.22-4.884l-0.684-0.297
				c-0.142,0.166-0.326,0.292-0.537,0.359l1.695,5.445c0.102-0.02,0.206-0.031,0.315-0.022c0.521,0.042,0.931,0.423,1.044,0.906
				l8.153-0.954l1.197-0.141C53.119,53.599,53.115,53.532,53.121,53.465z"/>
			<path style="fill:#44AFCC;" d="M40.459,46.141c0.194,0.016,0.371,0.083,0.525,0.18l5.988-8.386
				c-0.263-0.237-0.42-0.586-0.389-0.965c0.012-0.146,0.053-0.28,0.111-0.405l-4.225-2.607l-1.91-1.179
				c-0.157,0.177-0.365,0.302-0.6,0.36l0.152,4.696l0.271,8.307C40.408,46.143,40.434,46.139,40.459,46.141z"/>
			<path style="fill:#44AFCC;" d="M55.283,40.404c0-0.003,0.002-0.005,0.002-0.008l-3.66-1.55l-2.85-1.207
				c-0.218,0.386-0.644,0.634-1.115,0.596c-0.174-0.014-0.333-0.067-0.476-0.148l-0.779,1.091l-5.216,7.304
				c0.113,0.114,0.204,0.249,0.264,0.4l9.284-3.881l4.681-1.957C55.316,40.854,55.265,40.635,55.283,40.404z"/>
			<path style="fill:#44AFCC;" d="M61.854,24.822c-0.017-0.001-0.031-0.006-0.048-0.009l-0.972,3.208
				c0.188,0.066,0.354,0.177,0.482,0.321l2.813-1.789l2.031-1.292c-0.031-0.113-0.047-0.232-0.037-0.356
				c0.003-0.042,0.014-0.08,0.021-0.12l-3.296-0.603C62.7,24.584,62.302,24.859,61.854,24.822z"/>
			<path style="fill:#44AFCC;" d="M77.041,54.527c0.195-0.927,0.186-1.884-0.033-2.808l-0.533,0.843L77.041,54.527z"/>
			<path style="fill:#44AFCC;" d="M69.84,45.634c0.036,0.129,0.054,0.266,0.043,0.407c-0.017,0.207-0.091,0.395-0.199,0.556
				l4.438,3.853l2.109,1.832l0.088-0.785l0.142-1.263c-0.247-0.479-0.548-0.922-0.897-1.318c-0.03-0.034-0.04-0.083-0.025-0.128
				c0.015-0.044,0.052-0.076,0.098-0.086c0.367-0.075,0.718-0.214,1.042-0.41l0.379-3.389l0.389-3.466L69.84,45.634z"/>
			<path style="fill:#44AFCC;" d="M59.584,23.488l1.396,0.157c0.079-0.372,0.364-0.658,0.724-0.746l-0.3-2.564
				c-0.57-0.727-1.376-1.222-2.272-1.394c-0.016-0.003-0.031-0.009-0.045-0.018c-0.058-0.036-0.117-0.071-0.177-0.104l-0.273,3.521
				C59.185,22.445,59.584,22.925,59.584,23.488z"/>
			<path style="fill:#44AFCC;" d="M60.768,54.15c-0.119,0.029-0.244,0.046-0.373,0.035c-0.504-0.041-0.904-0.397-1.032-0.857
				l-2.384,0.383l7.348,10.131l-0.599-1.631L60.768,54.15z"/>
			<path style="fill:#44AFCC;" d="M58.375,22.32l0.131-1.678l0.151-1.949c-0.64-0.298-1.345-0.414-2.045-0.331
				c-0.001,0-0.061,0.01-0.063,0.011c-0.03,0.005-0.062-0.003-0.087-0.02c-0.736-0.471-1.626-0.677-2.497-0.575
				c-0.204,0.024-0.413,0.067-0.618,0.128l1.504,1.6l2.864,3.047C57.902,22.412,58.13,22.329,58.375,22.32z"/>
			<path style="fill:#44AFCC;" d="M62.013,22.871c0.367,0.03,0.668,0.263,0.81,0.577l0.932-0.32l1.268-0.435
				c-0.604-1.306-1.887-2.162-3.337-2.202l0.278,2.381C61.979,22.872,61.996,22.869,62.013,22.871z"/>
			<path style="fill:#44AFCC;" d="M47.136,24.528l2.635-0.274l7.477-0.776c0-0.028-0.004-0.056-0.002-0.085
				c0.021-0.255,0.124-0.483,0.278-0.664l-4.489-4.774c-1.035-0.569-2.215-0.8-3.393-0.663c-0.138,0.016-0.281,0.039-0.426,0.066
				l-2.432,5.855l-0.224,0.539C46.854,23.915,47.063,24.198,47.136,24.528z"/>
			<path style="fill:#44AFCC;" d="M44.12,23.121c-0.007,0.08-0.027,0.155-0.054,0.227l1.027,0.68c0.236-0.282,0.6-0.451,0.994-0.419
				c0.08,0.007,0.158,0.021,0.232,0.043l2.027-4.883l0.557-1.34c-0.371,0.094-0.73,0.225-1.072,0.39
				c-0.036,0.017-0.078,0.017-0.114,0c-0.005-0.002-0.009-0.004-0.013-0.006l-3.902,4.576C44.016,22.559,44.144,22.829,44.12,23.121
				z"/>
			<path style="fill:#44AFCC;" d="M77.949,40.857c-0.069-0.133-0.147-0.261-0.237-0.386l0.002,0.071l0.013,0.438L77.949,40.857z"/>
			<path style="fill:#44AFCC;" d="M68.281,37.007c-0.001,0.017-0.007,0.032-0.009,0.048l0.151,0.058l8.342,3.182l0.013-0.08
				l0.096-0.598c-0.02-0.031-0.032-0.065-0.026-0.09c0.07-0.348,0.085-0.7,0.044-1.045c-0.071-0.61-0.312-1.187-0.695-1.669
				l-7.801,0.058l-0.117,0.001C68.28,36.916,68.285,36.961,68.281,37.007z"/>
			<path style="fill:#44AFCC;" d="M40.755,20.064c-0.02,0.238-0.109,0.453-0.247,0.629l2.221,1.711
				c0.165-0.139,0.383-0.216,0.614-0.197c0.054,0.004,0.104,0.015,0.154,0.028l3.325-4.761c-0.724-0.211-1.488-0.274-2.24-0.186
				c-0.047,0.005-0.092,0.013-0.137,0.02l-0.039,0.006l-3.727,2.243C40.739,19.714,40.77,19.885,40.755,20.064z"/>
			<path style="fill:#44AFCC;" d="M77.452,40.48l-0.009-0.343c-0.106-0.115-0.22-0.222-0.338-0.32l-0.098,0.61l0.454,0.45
				L77.452,40.48z"/>
			<path style="fill:#44AFCC;" d="M67.979,25.642l2.833,3.231l4.307,4.909c-0.401-1.098-1.188-2.027-2.223-2.603
				c-0.04-0.022-0.065-0.065-0.067-0.111c-0.003-0.146-0.013-0.295-0.03-0.442c-0.198-1.698-1.243-3.146-2.796-3.87
				c-0.037-0.018-0.063-0.05-0.072-0.089c-0.047-0.205-0.113-0.41-0.196-0.61l-0.023-0.01l-1.589-0.654
				C68.084,25.482,68.038,25.567,67.979,25.642z"/>
			<path style="fill:#44AFCC;" d="M67.221,26.028l0.01,7.453l0.003,2.266c0.494,0.052,0.885,0.406,1.008,0.863l7.727-0.058
				c-0.162-0.167-0.338-0.316-0.526-0.442c-0.04-0.027-0.063-0.074-0.058-0.123c0.04-0.366,0.039-0.737-0.003-1.101
				c-0.02-0.163-0.049-0.33-0.089-0.511l-0.568-0.648l-6.936-7.907C67.627,25.942,67.432,26.016,67.221,26.028z"/>
			<path style="fill:#44AFCC;" d="M15.234,45.782l-0.117-0.147c0.177,0.922,0.482,1.806,0.912,2.635l0.404,0.265l2.1,1.376
				L15.234,45.782z"/>
			<path style="fill:#44AFCC;" d="M38.516,31.907c0.019-0.227,0.104-0.434,0.232-0.604l-7.597-7.482
				c-0.14,0.121-0.309,0.204-0.492,0.249l0.598,8.474l0.466,6.606c0.268,0.029,0.505,0.15,0.686,0.328l6.499-6.603
				C38.643,32.638,38.484,32.288,38.516,31.907z"/>
			<path style="fill:#44AFCC;" d="M68.98,47.083l0.039,3.863c0.001,0,0.002,0,0.002,0c0.592,0.048,1.041,0.529,1.072,1.105
				l5.864,0.338l-4.572-3.97l-1.871-1.624C69.366,46.937,69.184,47.035,68.98,47.083z"/>
			<path style="fill:#44AFCC;" d="M18.975,41.37l-3.882,0.708c-0.169,0.941-0.198,1.898-0.088,2.846
				c0.005,0.046,0.013,0.092,0.019,0.137l0.008,0.049l4.02,5.03l0.426-4.01l0.419-3.939C19.449,42.112,19.098,41.789,18.975,41.37z"
				/>
			<path style="fill:#44AFCC;" d="M56.881,64.174c0.016,0.012,0.03,0.026,0.04,0.045c0.69,1.243,1.285,2.642,1.768,4.159
				l4.776-1.451l0.002-0.027l-6.679-12.922l-2.015,7.771C55.263,62.722,55.99,63.559,56.881,64.174z"/>
			<path style="fill:#44AFCC;" d="M20.193,39.869c0.145,0.012,0.278,0.053,0.402,0.111l9.151-16.067
				c-0.14-0.091-0.259-0.209-0.349-0.35l-2.912,1.315l-3.338,1.507c-1.094,1.173-1.889,2.603-2.297,4.137
				c-0.008,0.03-0.025,0.056-0.05,0.073c-2.454,1.745-3.984,4.575-4.093,7.571c0,0.025-0.008,0.05-0.024,0.069
				c-0.174,0.251-0.342,0.521-0.5,0.804l2.797,1.297l0.138,0.064C19.348,40.053,19.75,39.833,20.193,39.869z"/>
			<path style="fill:#44AFCC;" d="M19.207,50.64l-0.063,0.129l-0.376,0.758c1.367,1.044,2.983,1.703,4.684,1.916l0.189-0.019
				l1.429-0.139l-2.024-0.913L19.207,50.64z"/>
			<path style="fill:#44AFCC;" d="M39.78,30.831c0.253,0.021,0.479,0.122,0.659,0.274l1.043-1.357
				c-0.301-0.235-0.481-0.611-0.448-1.02c0.007-0.082,0.021-0.162,0.044-0.238l-9.708-4.93c-0.015,0.022-0.028,0.045-0.044,0.066
				l7.598,7.483C39.153,30.914,39.457,30.805,39.78,30.831z"/>
			<path style="fill:#44AFCC;" d="M34.6,57.604c1.079,0.992,2.369,1.754,3.756,2.219l-1.358-2.286l-0.575-0.967L34.6,57.604z"/>
			<path style="fill:#44AFCC;" d="M16.304,48.761c0.588,0.988,1.358,1.878,2.254,2.602l0.125-0.252l0.296-0.596L16.304,48.761z"/>
			<path style="fill:#44AFCC;" d="M42.109,29.995c-0.144-0.012-0.278-0.053-0.402-0.111l-1.087,1.415
				c0.167,0.222,0.261,0.501,0.236,0.798l7.923,0.551l-0.84-0.458l-4.822-2.629C42.881,29.853,42.511,30.027,42.109,29.995z"/>
			<path style="fill:#44AFCC;" d="M41.469,55.147c-0.008-0.072-0.011-0.146-0.004-0.221c0.016-0.196,0.084-0.374,0.183-0.53
				l-3.765-3.025c-0.193,0.24-0.479,0.399-0.798,0.431l-0.468,4.424l1.796-0.399L41.469,55.147z"/>
			<path style="fill:#44AFCC;" d="M30.479,21.762c0.232,0.019,0.442,0.107,0.615,0.238l1.285-1.484
				c-0.86,0.239-1.678,0.597-2.435,1.068l0.106,0.225C30.185,21.769,30.33,21.75,30.479,21.762z"/>
			<path style="fill:#44AFCC;" d="M34.898,21.414l3.562-1.117c-0.039-0.134-0.059-0.275-0.046-0.422
				c0.048-0.596,0.536-1.047,1.118-1.073l0.055-0.517c-0.177,0.011-0.358,0.026-0.539,0.048c-1.657,0.193-3.236,0.825-4.567,1.827
				c-0.02,0.016-0.045,0.025-0.07,0.026c-0.199,0.011-0.396,0.025-0.596,0.049c-0.322,0.038-0.656,0.096-0.994,0.172l-1.537,1.774
				c0.077,0.092,0.137,0.197,0.183,0.309L34.898,21.414z"/>
			<path style="fill:#44AFCC;" d="M33.272,56.123c0.341,0.462,0.719,0.896,1.128,1.293l1.661-0.942l-1.001-0.126L33.272,56.123z"/>
			<path style="fill:#44AFCC;" d="M21.549,44.531L20.5,42.141c-0.109,0.04-0.225,0.062-0.344,0.067l-0.153,1.442l-0.716,6.738
				l2.078,0.938l3.948,1.781L21.549,44.531z"/>
			<path style="fill:#44AFCC;" d="M56.599,52.785l-0.237-10.59l-1.643,10.277c0.422,0.166,0.717,0.563,0.741,1.029l0.499-0.007
				l0.655-0.009L56.599,52.785z"/>
			<path style="fill:#44AFCC;" d="M54.731,29.868l0.308,1.8l1.311,7.664c0.065-0.006,0.132-0.01,0.199-0.004
				c0.082,0.007,0.16,0.022,0.235,0.044l2.783-8.292l0.311-0.928c-0.354-0.195-0.588-0.566-0.602-0.986l-3.719-0.223
				C55.479,29.392,55.153,29.746,54.731,29.868z"/>
			<path style="fill:#44AFCC;" d="M47.102,25.156l6.309,2.974c0.225-0.363,0.636-0.594,1.09-0.557
				c0.187,0.015,0.356,0.076,0.506,0.167l2.601-3.408c-0.166-0.159-0.282-0.364-0.333-0.594l-10.112,1.05
				c0,0.029,0.005,0.057,0.002,0.085C47.156,24.972,47.133,25.066,47.102,25.156z"/>
			<path style="fill:#44AFCC;" d="M21.25,40.833l6.98-0.374l2.193-0.118c-0.001-0.041-0.006-0.081-0.003-0.122
				c0.046-0.568,0.492-1.009,1.038-1.071l-1.061-15.047c-0.036,0-0.072,0.005-0.109,0.002c-0.109-0.009-0.211-0.037-0.309-0.073
				l-9.161,16.084C21.044,40.291,21.198,40.546,21.25,40.833z"/>
			<path style="fill:#44AFCC;" d="M49.413,33.067l-1.122,2.953c0.409,0.211,0.674,0.652,0.635,1.139
				c-0.007,0.083-0.022,0.164-0.045,0.24l6.459,2.736c0.034-0.102,0.082-0.196,0.141-0.283l-0.128-0.144L49.413,33.067z"/>
			<path style="fill:#44AFCC;" d="M55.649,39.65c0.126-0.12,0.275-0.214,0.443-0.269l-1.62-9.471
				c-0.053,0.003-0.106,0.008-0.161,0.003c-0.286-0.023-0.536-0.151-0.726-0.339l-4.029,3.261l5.971,6.678L55.649,39.65z"/>
			<path style="fill:#44AFCC;" d="M31.486,23.326l9.696,4.924c0.129-0.229,0.331-0.405,0.572-0.506l-0.775-2.505l-1.271-4.104
				c-0.072,0.008-0.146,0.011-0.22,0.004c-0.405-0.033-0.746-0.27-0.931-0.601l-7.02,2.201c0.016,0.094,0.023,0.19,0.016,0.288
				C31.546,23.133,31.52,23.232,31.486,23.326z"/>
			<path style="fill:#44AFCC;" d="M66.259,25.509l-4.788,3.046c0.109,0.196,0.164,0.426,0.145,0.667
				c-0.022,0.282-0.148,0.53-0.332,0.719l3.383,3.842l1.86,2.113c0.135-0.078,0.286-0.13,0.446-0.149l-0.013-9.738
				C66.658,25.948,66.405,25.763,66.259,25.509z"/>
			<path style="fill:#44AFCC;" d="M63.441,67.297c0-0.027,0.002-0.058,0.004-0.092l-2.298,0.698l-2.381,0.725
				c0.863,2.813,1.341,6.005,1.421,9.498L63.441,67.297z"/>
			<path style="fill:#44AFCC;" d="M46.831,36.341c0.235-0.299,0.611-0.48,1.019-0.447c0.068,0.005,0.133,0.02,0.196,0.036
				l1.138-2.992l-8.38-0.583c-0.023,0.074-0.054,0.144-0.09,0.21L46.831,36.341z"/>
			<path style="fill:#44AFCC;" d="M60.12,30.254l-1.157,3.45l-1.938,5.772c0.322,0.181,0.549,0.505,0.595,0.881l7.654-1.723
				l-1.914-3.612l-2.536-4.786c-0.148,0.051-0.309,0.074-0.475,0.06C60.271,30.29,60.194,30.275,60.12,30.254z"/>
			<path style="fill:#44AFCC;" d="M45.036,45.669l-3.514,1.469c0.013,0.087,0.02,0.177,0.012,0.269
				c-0.013,0.159-0.058,0.31-0.128,0.443l11.78,5.127l0.07,0.03c0.214-0.398,0.65-0.656,1.13-0.617
				c0.027,0.002,0.052,0.011,0.078,0.015l1.721-10.767c-0.246-0.059-0.461-0.188-0.618-0.371L45.036,45.669z"/>
			<path style="fill:#44AFCC;" d="M67.542,45.851c0.006-0.072,0.02-0.142,0.038-0.209l-10.243-4.374
				c-0.126,0.143-0.284,0.255-0.464,0.323l2.345,7.137l1.033,3.145c0.108-0.022,0.219-0.036,0.334-0.026
				c0.279,0.022,0.524,0.146,0.712,0.325l3.96-3.31l2.569-2.147C67.627,46.483,67.516,46.178,67.542,45.851z"/>
		</g>
	</g>
</g>
</svg>
